<svg width="24" height="20" viewBox="0 0 24 20" fill="none" xmlns="http://www.w3.org/2000/svg">
<path d="M21.6235 4.85486C21.6376 5.06644 21.6376 5.27801 21.6376 5.49154C21.6376 11.9978 16.847 19.5015 8.087 19.5015V19.4976C5.49927 19.5015 2.9653 18.7352 0.786865 17.2902C1.16314 17.337 1.5413 17.3604 1.92041 17.3614C4.0649 17.3633 6.14809 16.6194 7.8352 15.2495C5.79728 15.2095 4.0102 13.8357 3.3859 11.8301C4.09979 11.9725 4.83537 11.9432 5.53605 11.7453C3.31423 11.2812 1.71577 9.2629 1.71577 6.91896C1.71577 6.89751 1.71577 6.87704 1.71577 6.85656C2.37779 7.23779 3.11902 7.44937 3.87723 7.47277C1.78461 6.02682 1.13956 3.14858 2.40325 0.898245C4.82122 3.97442 8.38877 5.8445 12.2185 6.04243C11.8347 4.33225 12.359 2.54017 13.5963 1.33798C15.5144 -0.526252 18.5312 -0.430701 20.3344 1.55151C21.4009 1.33408 22.4232 0.929445 23.3587 0.356136C23.0032 1.49593 22.2591 2.46412 21.2651 3.07935C22.2091 2.9643 23.1314 2.703 24 2.30422C23.3606 3.29483 22.5552 4.15772 21.6235 4.85486Z" fill="black"/>
</svg>
